# xmcd CD database file
#
# Track frame offsets:
#	150
#	11629
#	24037
#	35279
#	47742
#	69260
#	85681
#	98232
#	114288
#	136132
#	148029
#	163683
#	174506
#	191162
#	208480
#	219444
#	246054
#	254399
#	262744
#
# Disc length: 3719 seconds
#
# Revision: 0
# Processed by: cddbd v1.5.1PL0 Copyright (c) Steve Scherf et al.
# Submitted via: CDex 1.51
#
DISCID=fd0e8513
DTITLE=Play Me The Blues Vol. III - Play Me The Blues Vol. III
DYEAR=1900
DGENRE=Blues
TTITLE0=01-Boom Boom-John Lee Hooker
TTITLE1=02-Mean Mistreatin' Mama-Elmore James
TTITLE2=03-Coming Home-Elmore James
TTITLE3=04-Lost And Gone-John Mayall
TTITLE4=05-Going Down Slow-Johnny Winter
TTITLE5=06-It`s My Own Fault Baby-B. B. King
TTITLE6=07-Baby Lee-John Lee Hooker
TTITLE7=08-Coffee For Mama-Lightnin' Hopkins
TTITLE8=09-Blues For The Lowlands-Brownie McGhee and Sonny Terry
TTITLE9=10-Lightining`s Bad Luck-Lightning Slim
TTITLE10=11-Wolverine Blues-Jelly Roll Morton
TTITLE11=12-West Coast Idea-Eric Clapton
TTITLE12=13-Outside Help-B. B. King
TTITLE13=14-Lonesome Blues-Mississippi John Hurt
TTITLE14=15-Nothin' But The Blues-Lightnin' Hopkins
TTITLE15=16-Little Red Rooster-Big Mama Thornton
TTITLE16=17-Baby Please Don`t Go-Big Joe Williams
TTITLE17=17-Bbay Please Don`t Go-Big Joe Williams
TTITLE18=18-Hot Time In The Old Town Tonight-Mississippi John Hurt
EXTD=
EXTT0=
EXTT1=
EXTT2=
EXTT3=
EXTT4=
EXTT5=
EXTT6=
EXTT7=
EXTT8=
EXTT9=
EXTT10=
EXTT11=
EXTT12=
EXTT13=
EXTT14=
EXTT15=
EXTT16=
EXTT17=
EXTT18=
PLAYORDER=
